<svg version="1.1" xmlns="http://www.w3.org/2000/svg" viewBox="0 0 1869.674729894843 1620" width="3739.349459789686" height="3240">
  <!-- svg-source:excalidraw -->
  
  <defs>
    <style class="style-fonts">
      @font-face {
        font-family: "Virgil";
        src: url("https://excalidraw.com/Virgil.woff2");
      }
      @font-face {
        font-family: "Cascadia";
        src: url("https://excalidraw.com/Cascadia.woff2");
      }
      @font-face {
        font-family: "Assistant";
        src: url("https://excalidraw.com/Assistant-Regular.woff2");
      }
    </style>
    
  </defs>
  <rect x="0" y="0" width="1869.674729894843" height="1620" fill="#ffffff"></rect><g stroke-linecap="round" transform="translate(79.67472989484304 730) rotate(0 260 160)"><path d="M32 0 C200.28 1.52, 367.97 1.03, 488 0 M32 0 C195.17 -0.68, 358.52 -0.98, 488 0 M488 0 C509.62 1.75, 519.42 11.35, 520 32 M488 0 C507.61 -1.96, 519.62 11.69, 520 32 M520 32 C521.13 88.34, 523.39 142.78, 520 288 M520 32 C522.04 118.91, 521.53 205.09, 520 288 M520 288 C518.06 307.36, 509.66 319.25, 488 320 M520 288 C521.19 307.86, 508.92 318.65, 488 320 M488 320 C316.54 320.79, 146.39 321.73, 32 320 M488 320 C331.51 322.13, 175.06 321.53, 32 320 M32 320 C10.5 321.46, -0.11 307.65, 0 288 M32 320 C11.48 320.29, -0.79 310, 0 288 M0 288 C2.18 195.3, 1.97 105.27, 0 32 M0 288 C-1.28 225.49, -0.51 163.1, 0 32 M0 32 C-1.67 10.21, 12.33 -1.78, 32 0 M0 32 C0.04 11.84, 8.59 1.16, 32 0" stroke="#1e1e1e" stroke-width="2" fill="none"></path></g><g stroke-linecap="round" transform="translate(679.674729894843 730) rotate(0 250 160)"><path d="M32 0 C203.37 0.08, 373.91 -0.91, 468 0 M32 0 C168.4 1.58, 304.5 1.31, 468 0 M468 0 C487.84 -1.71, 499.67 11.56, 500 32 M468 0 C487.44 2.15, 501.16 9.53, 500 32 M500 32 C502.49 120.35, 500.88 205.81, 500 288 M500 32 C498.12 111.9, 499.04 193.1, 500 288 M500 288 C501.03 308.05, 488.97 318.82, 468 320 M500 288 C501.74 311.07, 491.15 319.49, 468 320 M468 320 C380.16 320.74, 292.29 320.09, 32 320 M468 320 C305.13 319.22, 142.32 318.42, 32 320 M32 320 C11.37 320.25, -0.69 309.91, 0 288 M32 320 C12.02 318.41, 2.18 310.4, 0 288 M0 288 C-1.58 225.76, -0.8 161.29, 0 32 M0 288 C-1.29 206.4, 0.05 124.44, 0 32 M0 32 C0.03 11.68, 8.86 1.01, 32 0 M0 32 C2.2 12.6, 12.56 0.23, 32 0" stroke="#1e1e1e" stroke-width="2" fill="none"></path></g><g stroke-linecap="round" transform="translate(539.674729894843 1330) rotate(0 160 90)"><path d="M32 0 C133.07 0.59, 232.89 0.31, 288 0 M32 0 C130.61 -1.39, 230.3 -0.34, 288 0 M288 0 C307.69 1.87, 321.01 9.68, 320 32 M288 0 C310.23 2.08, 319.09 11.56, 320 32 M320 32 C319.6 76.72, 318.1 121.62, 320 148 M320 32 C320.71 54.68, 320.01 78.06, 320 148 M320 148 C321.51 170.85, 310.92 179.56, 288 180 M320 148 C317.76 171.5, 309.39 180.99, 288 180 M288 180 C195.03 180.31, 98.86 179.94, 32 180 M288 180 C192.85 178.37, 96.85 178.5, 32 180 M32 180 C11.84 178.62, 1.9 170.26, 0 148 M32 180 C9.41 180.77, 1.31 168.06, 0 148 M0 148 C0.44 109.59, 1.08 68.32, 0 32 M0 148 C-0.95 116.34, -1.87 84.17, 0 32 M0 32 C1.91 12.35, 12.31 0.2, 32 0 M0 32 C-2.03 11.57, 9.07 2.27, 32 0" stroke="#1e1e1e" stroke-width="2" fill="none"></path></g><g transform="translate(621.3448043577337 1407.5) rotate(0 78.32992553710938 12.5)"><text x="78.32992553710938" y="17.52" font-family="Virgil, Segoe UI Emoji" font-size="20px" fill="#1e1e1e" text-anchor="middle" style="white-space: pre;" direction="ltr" dominant-baseline="alphabetic">NextJS (server)</text></g><g stroke-linecap="round" transform="translate(739.674729894843 1330) rotate(0 60 30)"><path d="M15 0 C46.63 -0.71, 75.44 -1.63, 105 0 M15 0 C33.5 0.53, 54.15 -0.9, 105 0 M105 0 C115.78 1.81, 119.21 5.78, 120 15 M105 0 C117.18 -1.4, 120.23 5.35, 120 15 M120 15 C117.84 22.74, 119.08 30.85, 120 45 M120 15 C120.7 22.83, 120.74 28.93, 120 45 M120 45 C118.05 56.89, 115.05 60.86, 105 60 M120 45 C121.56 56.89, 115.08 61.69, 105 60 M105 60 C78.13 59.81, 46.67 60.63, 15 60 M105 60 C77.47 59.57, 49.71 60.72, 15 60 M15 60 C3.91 60.67, 1.14 53.89, 0 45 M15 60 C5.83 59.84, -1.52 55.42, 0 45 M0 45 C-0.6 36.76, -1.93 25.24, 0 15 M0 45 C1.23 35.32, 1.09 24.05, 0 15 M0 15 C-1.76 5.79, 3.61 1.97, 15 0 M0 15 C1.66 7.23, 5.98 2.11, 15 0" stroke="#1e1e1e" stroke-width="2" fill="none"></path></g><g transform="translate(781.0547424070501 1347.5) rotate(0 18.61998748779297 12.5)"><text x="18.61998748779297" y="17.52" font-family="Virgil, Segoe UI Emoji" font-size="20px" fill="#1e1e1e" text-anchor="middle" style="white-space: pre;" direction="ltr" dominant-baseline="alphabetic">API</text></g><g stroke-linecap="round" transform="translate(1119.674729894843 1350) rotate(0 180 100)"><path d="M32 0 C110.9 1.39, 192.98 0.42, 328 0 M32 0 C148.75 1.75, 264.64 1.37, 328 0 M328 0 C351.23 -1.22, 360.2 10.97, 360 32 M328 0 C348.11 -1.37, 357.77 8.39, 360 32 M360 32 C358.21 74.69, 358.31 119.62, 360 168 M360 32 C360.1 84.03, 361.1 134.61, 360 168 M360 168 C361.36 190.98, 349.4 201.47, 328 200 M360 168 C360.34 188.14, 349.15 201.67, 328 200 M328 200 C241.06 200.26, 154.18 201.64, 32 200 M328 200 C259.28 201.26, 191.79 200.61, 32 200 M32 200 C11.39 199.86, -1.32 189.69, 0 168 M32 200 C11.35 201.15, -1.93 188.81, 0 168 M0 168 C2.23 114.11, 2.22 65.75, 0 32 M0 168 C-2 116.17, -1.81 64.54, 0 32 M0 32 C1.44 12.61, 11.51 1.83, 32 0 M0 32 C0.11 9.6, 9.83 -1.55, 32 0" stroke="#1e1e1e" stroke-width="2" fill="none"></path></g><g transform="translate(1262.204759191718 1437.5) rotate(0 37.469970703125 12.5)"><text x="37.469970703125" y="17.52" font-family="Virgil, Segoe UI Emoji" font-size="20px" fill="#1e1e1e" text-anchor="middle" style="white-space: pre;" direction="ltr" dominant-baseline="alphabetic">backend</text></g><g stroke-linecap="round"><g transform="translate(392.1239057190187 1051) rotate(0 184.89613189744546 139)"><path d="M-0.99 1.12 C13.74 27.43, 26.28 112.08, 88.16 158.41 C150.03 204.73, 323.4 259.07, 370.26 279.08 M0.69 0.66 C15.33 27.08, 26.02 113.52, 87.53 159.63 C149.03 205.74, 322.78 257.28, 369.74 277.31" stroke="#1e1e1e" stroke-width="2" fill="none"></path></g><g transform="translate(392.1239057190187 1051) rotate(0 184.89613189744546 139)"><path d="M344.74 277.3 C353.7 278.51, 357.92 278.29, 369.74 277.31 M344.74 277.3 C355.45 276.59, 364.36 277.36, 369.74 277.31" stroke="#1e1e1e" stroke-width="2" fill="none"></path></g><g transform="translate(392.1239057190187 1051) rotate(0 184.89613189744546 139)"><path d="M350.6 261.23 C357.97 266.95, 360.53 271.28, 369.74 277.31 M350.6 261.23 C358.96 266.82, 365.58 273.86, 369.74 277.31" stroke="#1e1e1e" stroke-width="2" fill="none"></path></g></g><mask></mask><g transform="translate(659.674729894843 10) rotate(0 235.11590576171875 22.5)"><text x="0" y="31.536" font-family="Virgil, Segoe UI Emoji" font-size="36px" fill="#1e1e1e" text-anchor="start" style="white-space: pre;" direction="ltr" dominant-baseline="alphabetic">Universal app architecture</text></g><g stroke-linecap="round"><g transform="translate(860.674729894843 1371.7621312746796) rotate(0 128.9999999999999 26.864131282240578)"><path d="M0.47 1.08 C43.29 10.22, 214.41 45.54, 257.53 54.2 M-0.74 0.61 C41.83 9.43, 213.04 43.43, 256.33 52.32" stroke="#1e1e1e" stroke-width="2" fill="none"></path></g><g transform="translate(860.674729894843 1371.7621312746796) rotate(0 128.9999999999999 26.864131282240578)"><path d="M231.61 56.06 C242.1 53.86, 249.73 55.23, 256.33 52.32 M231.61 56.06 C236.98 54.53, 242.45 53.24, 256.33 52.32" stroke="#1e1e1e" stroke-width="2" fill="none"></path></g><g transform="translate(860.674729894843 1371.7621312746796) rotate(0 128.9999999999999 26.864131282240578)"><path d="M234.99 39.29 C244.21 42.98, 250.66 50.23, 256.33 52.32 M234.99 39.29 C239.57 41.78, 244.23 44.5, 256.33 52.32" stroke="#1e1e1e" stroke-width="2" fill="none"></path></g></g><mask></mask><g stroke-linecap="round"><g transform="translate(538.674729894843 1405.5658918733388) rotate(0 -154.21810646490553 -177.28294593666942)"><path d="M0.12 0.18 C-51.58 -58.91, -257.45 -295.96, -309.07 -355.28 M-1.28 -0.77 C-52.68 -59.65, -255.69 -295.07, -306.7 -354.12" stroke="#1e1e1e" stroke-width="2" fill="none"></path></g><g transform="translate(538.674729894843 1405.5658918733388) rotate(0 -154.21810646490553 -177.28294593666942)"><path d="M-284.87 -341.92 C-293.11 -347.77, -303.21 -353.47, -306.7 -354.12 M-284.87 -341.92 C-288.76 -345.1, -293.85 -347.5, -306.7 -354.12" stroke="#1e1e1e" stroke-width="2" fill="none"></path></g><g transform="translate(538.674729894843 1405.5658918733388) rotate(0 -154.21810646490553 -177.28294593666942)"><path d="M-297.82 -330.75 C-300.87 -341.02, -305.87 -351.13, -306.7 -354.12 M-297.82 -330.75 C-299.13 -336.12, -301.61 -340.77, -306.7 -354.12" stroke="#1e1e1e" stroke-width="2" fill="none"></path></g></g><mask></mask><g transform="translate(279.67472989484304 1270) rotate(0 51.539955139160156 12.5)"><text x="0" y="17.52" font-family="Virgil, Segoe UI Emoji" font-size="20px" fill="#1e1e1e" text-anchor="start" style="white-space: pre;" direction="ltr" dominant-baseline="alphabetic">render web</text></g><g transform="translate(319.67472989484304 690) rotate(0 18.009986877441406 12.5)"><text x="0" y="17.52" font-family="Virgil, Segoe UI Emoji" font-size="20px" fill="#1e1e1e" text-anchor="start" style="white-space: pre;" direction="ltr" dominant-baseline="alphabetic">Web</text></g><g transform="translate(859.674729894843 690) rotate(0 74.45994567871094 12.5)"><text x="0" y="17.52" font-family="Virgil, Segoe UI Emoji" font-size="20px" fill="#1e1e1e" text-anchor="start" style="white-space: pre;" direction="ltr" dominant-baseline="alphabetic">MOBILE (expo)</text></g><g stroke-linecap="round"><g transform="translate(999.674729894843 1050) rotate(0 60 160)"><path d="M-0.71 0.89 C9.39 37.75, 40.49 167.15, 60.51 220.23 C80.54 273.31, 109.55 302.92, 119.44 319.38 M1.11 0.32 C11.12 36.87, 40.29 164.88, 59.84 218.22 C79.38 271.57, 108.35 303.48, 118.37 320.38" stroke="#1e1e1e" stroke-width="2" fill="none"></path></g><g transform="translate(999.674729894843 1050) rotate(0 60 160)"><path d="M98.01 305.87 C105.29 311.05, 110.07 313.46, 118.37 320.38 M98.01 305.87 C103.1 308.7, 108.06 313.09, 118.37 320.38" stroke="#1e1e1e" stroke-width="2" fill="none"></path></g><g transform="translate(999.674729894843 1050) rotate(0 60 160)"><path d="M112.1 296.18 C115.22 304.08, 115.92 309.29, 118.37 320.38 M112.1 296.18 C113.67 301.3, 115.13 308.1, 118.37 320.38" stroke="#1e1e1e" stroke-width="2" fill="none"></path></g></g><mask></mask><g stroke-linecap="round"><g transform="translate(983.3188803564005 1051) rotate(0 -89.25790056059611 139)"><path d="M-1.2 0.94 C-30.98 47.29, -149.18 232.28, -178.86 278.35 M0.38 0.38 C-29.59 46.35, -150.46 230.09, -179.99 276.42" stroke="#1e1e1e" stroke-width="2" fill="none"></path></g><g transform="translate(983.3188803564005 1051) rotate(0 -89.25790056059611 139)"><path d="M-174.37 252.06 C-174.39 258.45, -176.98 264.8, -179.99 276.42 M-174.37 252.06 C-174.92 258.24, -178.09 263.29, -179.99 276.42" stroke="#1e1e1e" stroke-width="2" fill="none"></path></g><g transform="translate(983.3188803564005 1051) rotate(0 -89.25790056059611 139)"><path d="M-160.03 261.37 C-164.19 264.93, -170.91 268.6, -179.99 276.42 M-160.03 261.37 C-164.12 265.22, -170.82 267.98, -179.99 276.42" stroke="#1e1e1e" stroke-width="2" fill="none"></path></g></g><mask></mask><g transform="translate(499.67472989484304 1150) rotate(0 132.07992553710938 37.5)"><text x="0" y="17.52" font-family="Virgil, Segoe UI Emoji" font-size="20px" fill="#1e1e1e" text-anchor="start" style="white-space: pre;" direction="ltr" dominant-baseline="alphabetic">If we want, we can route </text><text x="0" y="42.519999999999996" font-family="Virgil, Segoe UI Emoji" font-size="20px" fill="#1e1e1e" text-anchor="start" style="white-space: pre;" direction="ltr" dominant-baseline="alphabetic">all requests through </text><text x="0" y="67.52" font-family="Virgil, Segoe UI Emoji" font-size="20px" fill="#1e1e1e" text-anchor="start" style="white-space: pre;" direction="ltr" dominant-baseline="alphabetic">NextJS backend as a 'bff'</text></g><g stroke-linecap="round" transform="translate(19.67472989484304 130) rotate(0 920 740)"><path d="M32 0 C401.32 1.62, 771.31 0.97, 1808 0 M32 0 C448.73 -3.2, 864.93 -3.65, 1808 0 M1808 0 C1828.69 0.11, 1841.56 11.23, 1840 32 M1808 0 C1828.99 1.95, 1841.63 9.6, 1840 32 M1840 32 C1838.19 360.28, 1838.77 688.74, 1840 1448 M1840 32 C1840.96 438.69, 1840.86 845.18, 1840 1448 M1840 1448 C1839.78 1471.22, 1831.17 1481.64, 1808 1480 M1840 1448 C1838.52 1470.25, 1831.34 1481.95, 1808 1480 M1808 1480 C1180.03 1477.43, 552.58 1476.88, 32 1480 M1808 1480 C1374.77 1477.3, 941.82 1476.79, 32 1480 M32 1480 C11.69 1479.39, -0.56 1469.75, 0 1448 M32 1480 C9.4 1478.16, 0.65 1468.54, 0 1448 M0 1448 C2.14 952.41, 2.24 455.14, 0 32 M0 1448 C3.06 895.97, 3.68 343.8, 0 32 M0 32 C-0.35 11.73, 12.32 -0.64, 32 0 M0 32 C0.31 12.93, 9.18 1.46, 32 0" stroke="#1971c2" stroke-width="2" fill="none"></path></g><g transform="translate(10 72.15503502555839) rotate(0 78.56997680664062 22.5)"><text x="0" y="31.536" font-family="Virgil, Segoe UI Emoji" font-size="36px" fill="#1971c2" text-anchor="start" style="white-space: pre;" direction="ltr" dominant-baseline="alphabetic">Monorepo</text></g><g stroke-linecap="round" transform="translate(379.67472989484304 230) rotate(0 610 160)"><path d="M32 0 C361.01 1.99, 691.22 1.72, 1188 0 M32 0 C276.13 -3.97, 519.76 -3.96, 1188 0 M1188 0 C1209.18 -0.94, 1221.54 12.48, 1220 32 M1188 0 C1210.89 -0.22, 1217.82 8.7, 1220 32 M1220 32 C1221.84 130.32, 1220.53 226.59, 1220 288 M1220 32 C1219.61 100.49, 1218.42 167.97, 1220 288 M1220 288 C1221.96 310.43, 1210.44 321.56, 1188 320 M1220 288 C1217.7 308.31, 1210.35 320.66, 1188 320 M1188 320 C873.1 315.51, 558.82 316.31, 32 320 M1188 320 C734.14 321.12, 281.31 321.52, 32 320 M32 320 C9.73 321.82, 0.1 310.75, 0 288 M32 320 C8.66 318.34, -0.03 311.47, 0 288 M0 288 C-0.27 191.5, -0.3 93.96, 0 32 M0 288 C1.14 204.4, 1.36 118.99, 0 32 M0 32 C-1.06 10.52, 12.64 1.13, 32 0 M0 32 C0.15 9.62, 11.74 -1.92, 32 0" stroke="#1971c2" stroke-width="2" fill="none"></path></g><g transform="translate(399.67472989484304 190) rotate(0 115.10794830322266 17.5)"><text x="0" y="24.528" font-family="Virgil, Segoe UI Emoji" font-size="28px" fill="#1971c2" text-anchor="start" style="white-space: pre;" direction="ltr" dominant-baseline="alphabetic">Shared packages</text></g><g stroke-linecap="round" transform="translate(419.67472989484304 285) rotate(0 230 120)"><path d="M32 0 C139.3 -1.05, 248 -2.07, 428 0 M32 0 C182.18 1.29, 332.05 1.5, 428 0 M428 0 C451.31 -0.68, 459.88 11.93, 460 32 M428 0 C447.88 1.17, 460.16 12.36, 460 32 M460 32 C460 84.3, 462.6 136.74, 460 208 M460 32 C461.46 95.63, 461.95 157.49, 460 208 M460 208 C458.66 230.77, 447.34 238.18, 428 240 M460 208 C458.96 230.07, 447.62 240.23, 428 240 M428 240 C316.93 241.19, 206.7 239.43, 32 240 M428 240 C322.46 239.96, 216.9 239.3, 32 240 M32 240 C11.22 238.03, -1.09 228.85, 0 208 M32 240 C12.45 237.76, 0.26 229.69, 0 208 M0 208 C-0.59 157.1, 0.33 104.38, 0 32 M0 208 C0.78 140.11, 0.48 72.04, 0 32 M0 32 C-0.17 8.97, 8.94 0.72, 32 0 M0 32 C1.55 10.49, 8.54 -1.74, 32 0" stroke="#1971c2" stroke-width="2" fill="none"></path></g><g stroke-linecap="round" transform="translate(1099.674729894843 290) rotate(0 230 120)"><path d="M32 0 C178.72 2.44, 325.62 2.19, 428 0 M32 0 C141.97 0.47, 252.36 -0.41, 428 0 M428 0 C448.67 -1.86, 459.71 10.87, 460 32 M428 0 C450.49 0.42, 458.48 11.3, 460 32 M460 32 C460.59 65.52, 459.27 103.25, 460 208 M460 32 C459.79 85.6, 460.25 138.29, 460 208 M460 208 C461.73 229.42, 448.04 241.72, 428 240 M460 208 C460.22 230.61, 449.36 239.81, 428 240 M428 240 C343.54 240.73, 256.47 239.95, 32 240 M428 240 C315.22 237.79, 202.83 237.71, 32 240 M32 240 C9.45 241.09, -1.96 228.41, 0 208 M32 240 C12.34 242.03, 0.02 230.02, 0 208 M0 208 C2.44 143.65, 0.56 77.2, 0 32 M0 208 C-0.09 156.46, -1.23 105.46, 0 32 M0 32 C-0.87 11.15, 10.11 -1.73, 32 0 M0 32 C0.6 11.93, 9.92 -1.8, 32 0" stroke="#1971c2" stroke-width="2" fill="none"></path></g><g transform="translate(439.67472989484304 245) rotate(0 30.449989318847656 17.5)"><text x="0" y="24.528" font-family="Virgil, Segoe UI Emoji" font-size="28px" fill="#1971c2" text-anchor="start" style="white-space: pre;" direction="ltr" dominant-baseline="alphabetic">Core</text></g><g transform="translate(1119.674729894843 250) rotate(0 46.40997314453125 17.5)"><text x="0" y="24.528" font-family="Virgil, Segoe UI Emoji" font-size="28px" fill="#1971c2" text-anchor="start" style="white-space: pre;" direction="ltr" dominant-baseline="alphabetic">Shared</text></g><g stroke-linecap="round" transform="translate(99.67472989484304 750) rotate(0 110 70)"><path d="M32 0 C72.9 -0.91, 118.96 2.42, 188 0 M32 0 C73.52 1.24, 117.51 1.03, 188 0 M188 0 C210.67 1.44, 220.74 10.43, 220 32 M188 0 C211.57 -1.79, 218.03 10.75, 220 32 M220 32 C218.76 58.63, 222.15 88.83, 220 108 M220 32 C218.71 48.65, 220.42 64.58, 220 108 M220 108 C220.32 129.08, 210.44 141.31, 188 140 M220 108 C220.65 128.03, 209.79 140.14, 188 140 M188 140 C132.51 136.91, 74.89 140.17, 32 140 M188 140 C140.76 140.84, 94.86 140.79, 32 140 M32 140 C9.92 141.66, -0.47 129.15, 0 108 M32 140 C10.92 139.88, -0.5 131.1, 0 108 M0 108 C-2.44 82.2, -0.26 53.24, 0 32 M0 108 C0.55 88.86, -0.02 69.15, 0 32 M0 32 C0.02 10.66, 10.42 1.96, 32 0 M0 32 C-1.64 9.52, 12.36 -0.59, 32 0" stroke="#1e1e1e" stroke-width="2" fill="none"></path></g><g transform="translate(139.67472989484304 830) rotate(0 27.27997589111328 12.5)"><text x="0" y="17.52" font-family="Virgil, Segoe UI Emoji" font-size="20px" fill="#1e1e1e" text-anchor="start" style="white-space: pre;" direction="ltr" dominant-baseline="alphabetic">/home</text></g><g transform="translate(147.3802116167658 862.5730652670027) rotate(0 20.589988708496094 12.5)"><text x="0" y="17.52" font-family="Virgil, Segoe UI Emoji" font-size="20px" fill="#1e1e1e" text-anchor="start" style="white-space: pre;" direction="ltr" dominant-baseline="alphabetic">/id/1</text></g><g transform="translate(126.3410207464417 763.5738180592516) rotate(0 79.0699234008789 25)"><text x="0" y="17.52" font-family="Virgil, Segoe UI Emoji" font-size="20px" fill="#1e1e1e" text-anchor="start" style="white-space: pre;" direction="ltr" dominant-baseline="alphabetic">Native routing:</text><text x="0" y="42.519999999999996" font-family="Virgil, Segoe UI Emoji" font-size="20px" fill="#1e1e1e" text-anchor="start" style="white-space: pre;" direction="ltr" dominant-baseline="alphabetic">(NextJS router)</text></g><g stroke-linecap="round" transform="translate(699.674729894843 810) rotate(0 110 110)"><path d="M32 0 C73.39 0.15, 112.34 -1.99, 188 0 M32 0 C82.37 1.94, 131.34 0.5, 188 0 M188 0 C210.71 -0.58, 220.79 11.17, 220 32 M188 0 C207.24 -1.5, 220.07 12.78, 220 32 M220 32 C221.23 90.43, 218.43 147.48, 220 188 M220 32 C219.06 69.92, 220.12 107.49, 220 188 M220 188 C218.59 208.31, 210.36 219.88, 188 220 M220 188 C220.23 209.86, 207.46 220.32, 188 220 M188 220 C149.8 221.8, 113.89 221.99, 32 220 M188 220 C149.03 218.39, 109.73 219.09, 32 220 M32 220 C9.5 218.22, 0.86 210.12, 0 188 M32 220 C11.11 220.86, -0.47 209.59, 0 188 M0 188 C1.13 138.21, 0.81 90.11, 0 32 M0 188 C0.71 152.75, -0.04 116.82, 0 32 M0 32 C0.96 9.98, 12.05 0.85, 32 0 M0 32 C-2.15 12.5, 10.08 -1.11, 32 0" stroke="#1e1e1e" stroke-width="2" fill="none"></path></g><g transform="translate(742.9485918871924 887.2355298642615) rotate(0 27.27997589111328 12.5)"><text x="0" y="17.52" font-family="Virgil, Segoe UI Emoji" font-size="20px" fill="#1e1e1e" text-anchor="start" style="white-space: pre;" direction="ltr" dominant-baseline="alphabetic">/home</text></g><g transform="translate(747.3802116167662 922.5730652670027) rotate(0 20.589988708496094 12.5)"><text x="0" y="17.52" font-family="Virgil, Segoe UI Emoji" font-size="20px" fill="#1e1e1e" text-anchor="start" style="white-space: pre;" direction="ltr" dominant-baseline="alphabetic">/id/1</text></g><g transform="translate(726.3410207464422 823.5738180592525) rotate(0 77.10993194580078 25)"><text x="0" y="17.52" font-family="Virgil, Segoe UI Emoji" font-size="20px" fill="#1e1e1e" text-anchor="start" style="white-space: pre;" direction="ltr" dominant-baseline="alphabetic">Native routing: </text><text x="0" y="42.519999999999996" font-family="Virgil, Segoe UI Emoji" font-size="20px" fill="#1e1e1e" text-anchor="start" style="white-space: pre;" direction="ltr" dominant-baseline="alphabetic">(expo router)</text></g><g stroke-linecap="round" transform="translate(359.67472989484304 810) rotate(0 110 110)"><path d="M32 0 C82.17 1.89, 131.04 0.77, 188 0 M32 0 C66.89 -1.24, 99.55 -1.26, 188 0 M188 0 C211.27 -1.24, 219.76 11.48, 220 32 M188 0 C207.13 1.43, 222.04 8.86, 220 32 M220 32 C220.6 84.3, 219.72 137.57, 220 188 M220 32 C221.65 76.56, 220.51 122.37, 220 188 M220 188 C219.65 207.99, 208.48 220.36, 188 220 M220 188 C219.54 209.63, 208.4 219.91, 188 220 M188 220 C142.56 218.55, 97.46 219.64, 32 220 M188 220 C140.86 220.27, 95.18 219.69, 32 220 M32 220 C11.55 221.2, 1.26 210.73, 0 188 M32 220 C10.95 218.38, -0.57 207.41, 0 188 M0 188 C-2.3 133.23, 0.44 80.38, 0 32 M0 188 C0.58 144.06, 1.51 99.92, 0 32 M0 32 C-1.05 9.98, 9.4 0.25, 32 0 M0 32 C-2.27 9.39, 8.55 -0.47, 32 0" stroke="#1e1e1e" stroke-width="2" fill="none"></path></g><g transform="translate(382.4547973386907 895) rotate(0 87.21993255615234 25)"><text x="87.21993255615234" y="17.52" font-family="Virgil, Segoe UI Emoji" font-size="20px" fill="#1e1e1e" text-anchor="middle" style="white-space: pre;" direction="ltr" dominant-baseline="alphabetic">Shared packages </text><text x="87.21993255615234" y="42.519999999999996" font-family="Virgil, Segoe UI Emoji" font-size="20px" fill="#1e1e1e" text-anchor="middle" style="white-space: pre;" direction="ltr" dominant-baseline="alphabetic">bundled for web</text></g><g stroke-linecap="round" transform="translate(939.674729894843 810) rotate(0 110 110)"><path d="M32 0 C71.67 -2.14, 112.27 0.14, 188 0 M32 0 C79.62 1.61, 129.31 0.98, 188 0 M188 0 C210.35 -0.7, 221.3 10.89, 220 32 M188 0 C210.36 0.68, 217.81 10.51, 220 32 M220 32 C219.95 64.14, 219.09 97.79, 220 188 M220 32 C217.87 75.16, 218.62 116.57, 220 188 M220 188 C218.57 209.33, 209.37 221.65, 188 220 M220 188 C220.4 207.71, 211.56 220.2, 188 220 M188 220 C151.34 220.81, 112.26 219.77, 32 220 M188 220 C135.85 220.51, 86.08 220.95, 32 220 M32 220 C9.58 221.7, -1.12 207.94, 0 188 M32 220 C11.29 218.47, 1.41 208.6, 0 188 M0 188 C-1.34 137.42, -0.15 89.79, 0 32 M0 188 C0.39 141.59, 1.08 93.95, 0 32 M0 32 C1.54 10.67, 8.86 1.58, 32 0 M0 32 C-0.47 11.04, 9.31 -2.3, 32 0" stroke="#1e1e1e" stroke-width="2" fill="none"></path></g><g transform="translate(962.4547973386907 895) rotate(0 87.21993255615234 25)"><text x="87.21993255615234" y="17.52" font-family="Virgil, Segoe UI Emoji" font-size="20px" fill="#1e1e1e" text-anchor="middle" style="white-space: pre;" direction="ltr" dominant-baseline="alphabetic">Shared packages </text><text x="87.21993255615234" y="42.519999999999996" font-family="Virgil, Segoe UI Emoji" font-size="20px" fill="#1e1e1e" text-anchor="middle" style="white-space: pre;" direction="ltr" dominant-baseline="alphabetic">bundled for mobile</text></g><g stroke-linecap="round" transform="translate(1259.674729894843 730) rotate(0 250 160)"><path d="M32 0 C194.12 -1.56, 358.3 -0.91, 468 0 M32 0 C202.55 -1.25, 373.35 -0.33, 468 0 M468 0 C489.58 -0.99, 500.77 11.36, 500 32 M468 0 C487.19 -0.62, 499.28 11.69, 500 32 M500 32 C500.98 94.92, 500.09 155.32, 500 288 M500 32 C501.49 119.37, 501.15 204.6, 500 288 M500 288 C501.25 308.81, 491.12 319.95, 468 320 M500 288 C500.7 308.24, 488.92 321.75, 468 320 M468 320 C325.08 319.86, 182.59 319.88, 32 320 M468 320 C343.71 321.72, 219.06 321.37, 32 320 M32 320 C9.87 319.92, 1.38 310.59, 0 288 M32 320 C11.64 320.65, 1.37 309.28, 0 288 M0 288 C0.99 207.26, 0.59 130.74, 0 32 M0 288 C-0.81 190.54, -1.73 91.51, 0 32 M0 32 C0.7 10.11, 10.42 1.91, 32 0 M0 32 C1.81 12.46, 10.92 -2.25, 32 0" stroke="#1e1e1e" stroke-width="2" fill="none"></path></g><g transform="translate(1419.674729894843 690) rotate(0 77.16992950439453 12.5)"><text x="0" y="17.52" font-family="Virgil, Segoe UI Emoji" font-size="20px" fill="#1e1e1e" text-anchor="start" style="white-space: pre;" direction="ltr" dominant-baseline="alphabetic">tv, desktop etc</text></g><g stroke-linecap="round" transform="translate(1279.674729894843 810) rotate(0 110 110)"><path d="M32 0 C75.59 -0.91, 116.29 -0.23, 188 0 M32 0 C65.72 -1.99, 99.58 -1.16, 188 0 M188 0 C207.47 -0.54, 219.37 11.56, 220 32 M188 0 C208.03 1.52, 219.61 10.12, 220 32 M220 32 C219.54 85.7, 217.56 137.21, 220 188 M220 32 C220.27 93.53, 220.54 155.57, 220 188 M220 188 C220.61 208.38, 208.98 221.52, 188 220 M220 188 C220.64 210.98, 209.46 219.83, 188 220 M188 220 C145.01 217.76, 104.14 221.17, 32 220 M188 220 C140.44 218.9, 94.38 219.57, 32 220 M32 220 C11.52 220.57, 1.19 209.29, 0 188 M32 220 C10.9 219.31, -0.93 209.87, 0 188 M0 188 C1.69 155.99, 1.99 122.84, 0 32 M0 188 C0.61 128.5, 0.13 70.52, 0 32 M0 32 C1.57 12.22, 10.89 -1.96, 32 0 M0 32 C0.48 10.03, 11.63 0.02, 32 0" stroke="#1e1e1e" stroke-width="2" fill="none"></path></g><g transform="translate(1319.674729894843 890) rotate(0 69.68993377685547 25)"><text x="0" y="17.52" font-family="Virgil, Segoe UI Emoji" font-size="20px" fill="#1e1e1e" text-anchor="start" style="white-space: pre;" direction="ltr" dominant-baseline="alphabetic">Native routing</text><text x="0" y="42.519999999999996" font-family="Virgil, Segoe UI Emoji" font-size="20px" fill="#1e1e1e" text-anchor="start" style="white-space: pre;" direction="ltr" dominant-baseline="alphabetic">for platform</text></g><g stroke-linecap="round" transform="translate(1519.674729894843 810) rotate(0 110 110)"><path d="M32 0 C89.64 0.58, 149.95 -2.06, 188 0 M32 0 C74 -0.03, 116.95 -0.93, 188 0 M188 0 C210.05 -1.57, 218.32 11.43, 220 32 M188 0 C210.82 -1.4, 220.45 12.88, 220 32 M220 32 C218.32 77.06, 218.79 119.17, 220 188 M220 32 C220 72.07, 219.78 110.64, 220 188 M220 188 C219.48 209.9, 208.85 219.72, 188 220 M220 188 C217.85 211.12, 211.11 220.05, 188 220 M188 220 C128.48 220.75, 70.38 220.22, 32 220 M188 220 C136.87 219.66, 85.13 220.2, 32 220 M32 220 C8.97 219.96, 1.84 211, 0 188 M32 220 C12.44 222.26, 2.25 211.16, 0 188 M0 188 C0.01 143.54, 2.47 101.14, 0 32 M0 188 C0.04 128.78, 0.25 70.11, 0 32 M0 32 C-0.57 10.45, 11.39 -1.69, 32 0 M0 32 C1.32 8.78, 11.04 -0.48, 32 0" stroke="#1e1e1e" stroke-width="2" fill="none"></path></g><g transform="translate(1529.154824804511 895) rotate(0 100.51990509033203 25)"><text x="100.51990509033203" y="17.52" font-family="Virgil, Segoe UI Emoji" font-size="20px" fill="#1e1e1e" text-anchor="middle" style="white-space: pre;" direction="ltr" dominant-baseline="alphabetic">Shared packages </text><text x="100.51990509033203" y="42.519999999999996" font-family="Virgil, Segoe UI Emoji" font-size="20px" fill="#1e1e1e" text-anchor="middle" style="white-space: pre;" direction="ltr" dominant-baseline="alphabetic">bundled for platform</text></g><g stroke-linecap="round" transform="translate(459.67472989484304 310) rotate(0 180 40)"><path d="M20 0 C134.12 1.34, 248.2 1.03, 340 0 M20 0 C89.97 1.91, 158.35 2.12, 340 0 M340 0 C353.31 1.81, 361.08 5.89, 360 20 M340 0 C354.79 1.93, 357.71 7.27, 360 20 M360 20 C359.4 31.38, 358.36 40.24, 360 60 M360 20 C359.91 33.44, 358.9 45.49, 360 60 M360 60 C358.58 71.39, 352.31 78.61, 340 80 M360 60 C358.15 71.53, 354.91 79.11, 340 80 M340 80 C251.06 79.93, 160.73 80.54, 20 80 M340 80 C223.37 77.61, 106.18 77.46, 20 80 M20 80 C5.83 81.31, 1.66 72.9, 0 60 M20 80 C4.58 79.25, 0.7 72.81, 0 60 M0 60 C1.59 50.44, -0.05 41.31, 0 20 M0 60 C0.43 47.86, -0.13 35.39, 0 20 M0 20 C-1.17 8.49, 7.47 1.43, 20 0 M0 20 C-1.1 8.73, 5.37 -0.23, 20 0" stroke="#1971c2" stroke-width="2" fill="none"></path></g><g transform="translate(627.0847335569524 337.5) rotate(0 12.589996337890625 12.5)"><text x="12.589996337890625" y="17.52" font-family="Virgil, Segoe UI Emoji" font-size="20px" fill="#1971c2" text-anchor="middle" style="white-space: pre;" direction="ltr" dominant-baseline="alphabetic">UI</text></g><g stroke-linecap="round" transform="translate(459.67472989484304 410) rotate(0 180 40)"><path d="M20 0 C127.9 0.13, 236.23 1.69, 340 0 M20 0 C93.68 -0.79, 166.72 -0.84, 340 0 M340 0 C354.14 1.43, 359.04 8.46, 360 20 M340 0 C352.03 -0.23, 359.87 8.35, 360 20 M360 20 C359.62 30.72, 361.45 44.06, 360 60 M360 20 C359.23 28.88, 360.4 37.53, 360 60 M360 60 C361.12 74.78, 354.36 79.38, 340 80 M360 60 C359.59 72.07, 354.27 81.44, 340 80 M340 80 C261.29 78.03, 184.41 77.48, 20 80 M340 80 C261.28 79.18, 181.45 79.83, 20 80 M20 80 C8.5 78.26, 1.42 72.72, 0 60 M20 80 C7.06 79.67, -1.3 71.65, 0 60 M0 60 C-0.86 50.13, -0.87 43.69, 0 20 M0 60 C-0.27 49.04, 0.46 40.12, 0 20 M0 20 C0.27 7.95, 6.97 -1.79, 20 0 M0 20 C-0.16 4.99, 8.74 0.51, 20 0" stroke="#1971c2" stroke-width="2" fill="none"></path></g><g transform="translate(594.9147811643743 437.5) rotate(0 44.75994873046875 12.5)"><text x="44.75994873046875" y="17.52" font-family="Virgil, Segoe UI Emoji" font-size="20px" fill="#1971c2" text-anchor="middle" style="white-space: pre;" direction="ltr" dominant-baseline="alphabetic">Providers</text></g><g stroke-linecap="round" transform="translate(1139.674729894843 315) rotate(0 180 40)"><path d="M20 0 C111.91 1.27, 206.66 0.86, 340 0 M20 0 C136.48 1.5, 253.69 2.16, 340 0 M340 0 C351.96 1.84, 360.15 6.42, 360 20 M340 0 C352.4 -0.47, 359.17 4.91, 360 20 M360 20 C357.99 31.56, 361.51 46.69, 360 60 M360 20 C360.09 28.65, 359.58 36.41, 360 60 M360 60 C358.95 74.43, 352.67 79.48, 340 80 M360 60 C361.84 72.02, 351.39 79.73, 340 80 M340 80 C227.58 82.76, 115.82 83.05, 20 80 M340 80 C239.51 78.29, 137.7 77.89, 20 80 M20 80 C7.02 79.6, -0.2 72.04, 0 60 M20 80 C6.55 79.54, 0.53 72.25, 0 60 M0 60 C-0.75 46.1, 0.62 34.43, 0 20 M0 60 C0.73 52.63, -0.44 44.35, 0 20 M0 20 C-0.5 7.74, 5.9 -1.19, 20 0 M0 20 C-1.27 6.44, 8.65 -0.17, 20 0" stroke="#1971c2" stroke-width="2" fill="none"></path></g><g transform="translate(1259.4247833006048 342.5) rotate(0 60.24994659423828 12.5)"><text x="60.24994659423828" y="17.52" font-family="Virgil, Segoe UI Emoji" font-size="20px" fill="#1971c2" text-anchor="middle" style="white-space: pre;" direction="ltr" dominant-baseline="alphabetic">ESlint config</text></g><g stroke-linecap="round" transform="translate(1139.674729894843 415) rotate(0 180 40)"><path d="M20 0 C109.34 -0.54, 198.34 -0.47, 340 0 M20 0 C109.88 1.67, 199 0.91, 340 0 M340 0 C353.03 0.98, 361.62 4.8, 360 20 M340 0 C352.65 0.52, 361.41 8.73, 360 20 M360 20 C361.43 28.99, 359.17 38.42, 360 60 M360 20 C360.85 32.17, 361.25 43.94, 360 60 M360 60 C360.6 74.97, 352.38 78.65, 340 80 M360 60 C359.52 74.63, 352.39 78.41, 340 80 M340 80 C227.18 79.51, 116.63 81.45, 20 80 M340 80 C214.64 80.24, 88.09 80.24, 20 80 M20 80 C5.66 80.33, 1.09 74.19, 0 60 M20 80 C5.74 79.6, 1.46 71.86, 0 60 M0 60 C0.09 52.26, 1.04 44.14, 0 20 M0 60 C-0.96 46.98, -0.54 35.36, 0 20 M0 20 C0.83 8.25, 7.19 1.2, 20 0 M0 20 C-0.11 5.85, 4.45 1.32, 20 0" stroke="#1971c2" stroke-width="2" fill="none"></path></g><g transform="translate(1273.2647720091009 442.5) rotate(0 46.40995788574219 12.5)"><text x="46.40995788574219" y="17.52" font-family="Virgil, Segoe UI Emoji" font-size="20px" fill="#1971c2" text-anchor="middle" style="white-space: pre;" direction="ltr" dominant-baseline="alphabetic">TS config</text></g><g stroke-linecap="round"><g transform="translate(479.67472989484304 810) rotate(0 40 -140)"><path d="M-0.42 -1.15 C12.9 -47.86, 67.37 -233.79, 80.69 -280.31 M1.55 0.85 C14.72 -45.67, 67.28 -232.28, 80.1 -278.93" stroke="#1971c2" stroke-width="2" fill="none"></path></g><g transform="translate(479.67472989484304 810) rotate(0 40 -140)"><path d="M82.03 -254 C79.42 -261.84, 80.14 -272.81, 80.1 -278.93 M82.03 -254 C80.99 -260.55, 82.12 -268.37, 80.1 -278.93" stroke="#1971c2" stroke-width="2" fill="none"></path></g><g transform="translate(479.67472989484304 810) rotate(0 40 -140)"><path d="M65.56 -258.6 C68.88 -264.72, 75.54 -274.03, 80.1 -278.93 M65.56 -258.6 C69.07 -263.9, 74.82 -270.44, 80.1 -278.93" stroke="#1971c2" stroke-width="2" fill="none"></path></g></g><mask></mask><g stroke-linecap="round"><g transform="translate(1059.674729894843 810) rotate(0 -150 -140)"><path d="M-0.68 -0.47 C-50.73 -46.99, -250.85 -233.16, -300.91 -279.86 M1.16 -1.75 C-48.46 -47.99, -248.7 -231.92, -298.68 -278.25" stroke="#1971c2" stroke-width="2" fill="none"></path></g><g transform="translate(1059.674729894843 810) rotate(0 -150 -140)"><path d="M-275.61 -268.61 C-282.04 -272.64, -286.74 -275.29, -298.68 -278.25 M-275.61 -268.61 C-281.66 -270.27, -285.78 -272.83, -298.68 -278.25" stroke="#1971c2" stroke-width="2" fill="none"></path></g><g transform="translate(1059.674729894843 810) rotate(0 -150 -140)"><path d="M-287.21 -256.04 C-290.68 -263.12, -292.51 -268.87, -298.68 -278.25 M-287.21 -256.04 C-290.3 -260.7, -291.6 -266.32, -298.68 -278.25" stroke="#1971c2" stroke-width="2" fill="none"></path></g></g><mask></mask><g stroke-linecap="round"><g transform="translate(1619.674729894843 810) rotate(0 -380 -140)"><path d="M0.05 -0.54 C-126.74 -47, -633.62 -232.28, -760.16 -278.92 M-1.39 1.79 C-128.4 -44.96, -634.83 -233.63, -761.19 -280.47" stroke="#1971c2" stroke-width="2" fill="none"></path></g><g transform="translate(1619.674729894843 810) rotate(0 -380 -140)"><path d="M-736.19 -280.3 C-745.79 -280.62, -751.79 -279.07, -761.19 -280.47 M-736.19 -280.3 C-743.25 -280.98, -749.21 -280.69, -761.19 -280.47" stroke="#1971c2" stroke-width="2" fill="none"></path></g><g transform="translate(1619.674729894843 810) rotate(0 -380 -140)"><path d="M-742.15 -264.27 C-749.66 -270.17, -753.58 -274.2, -761.19 -280.47 M-742.15 -264.27 C-747.5 -269.24, -751.86 -273.24, -761.19 -280.47" stroke="#1971c2" stroke-width="2" fill="none"></path></g></g><mask></mask><g stroke-linecap="round"><g transform="translate(1439.674729894843 1050) rotate(0 -310 140)"><path d="M-0.75 -1.14 C-104.16 45.44, -515.97 232.69, -619.27 279.48 M1.06 0.87 C-102.55 47.62, -516.06 234.1, -619.84 280.74" stroke="#1e1e1e" stroke-width="2" fill="none"></path></g><g transform="translate(1439.674729894843 1050) rotate(0 -310 140)"><path d="M-601.93 263.3 C-610.98 271.35, -617.08 276.15, -619.84 280.74 M-601.93 263.3 C-605.75 268.15, -611.34 272.29, -619.84 280.74" stroke="#1e1e1e" stroke-width="2" fill="none"></path></g><g transform="translate(1439.674729894843 1050) rotate(0 -310 140)"><path d="M-594.91 278.89 C-606.75 280.68, -615.66 279.27, -619.84 280.74 M-594.91 278.89 C-600.6 279.61, -608.05 279.62, -619.84 280.74" stroke="#1e1e1e" stroke-width="2" fill="none"></path></g></g><mask></mask><g stroke-linecap="round"><g transform="translate(1453.7190034456348 1050) rotate(0 -52.17942994574332 149.5)"><path d="M0.65 0.6 C-16.55 50.73, -85.85 250.14, -103.52 300.02 M-0.47 -0.14 C-17.73 49.75, -86.95 248.75, -104.03 298.43" stroke="#1e1e1e" stroke-width="2" fill="none"></path></g><g transform="translate(1453.7190034456348 1050) rotate(0 -52.17942994574332 149.5)"><path d="M-104.43 273.43 C-103.49 281.64, -102.69 285.4, -104.03 298.43 M-104.43 273.43 C-104.38 282.25, -103.25 292.04, -104.03 298.43" stroke="#1e1e1e" stroke-width="2" fill="none"></path></g><g transform="translate(1453.7190034456348 1050) rotate(0 -52.17942994574332 149.5)"><path d="M-88.27 279.02 C-91.71 285.8, -95.31 288.03, -104.03 298.43 M-88.27 279.02 C-94.22 285.85, -99.08 293.57, -104.03 298.43" stroke="#1e1e1e" stroke-width="2" fill="none"></path></g></g><mask></mask><g stroke-linecap="round" transform="translate(99.67472989484304 910) rotate(0 110 60)"><path d="M30 0 C73.45 2.49, 115.59 -0.54, 190 0 M30 0 C91.5 0.52, 153.84 -0.24, 190 0 M190 0 C210.26 1.17, 219.92 11.93, 220 30 M190 0 C209.47 1.19, 218.91 10.67, 220 30 M220 30 C221.69 51.74, 218.31 74.53, 220 90 M220 30 C220.65 44.59, 220.69 60.02, 220 90 M220 90 C218.81 110.01, 208.03 120.67, 190 120 M220 90 C221.41 109.02, 212 119.02, 190 120 M190 120 C154.16 121.2, 120.52 121.45, 30 120 M190 120 C143.03 118.15, 95 118.27, 30 120 M30 120 C10.23 119.09, -0.42 108.97, 0 90 M30 120 C8.43 118.54, 1.13 109.88, 0 90 M0 90 C-0.29 69.69, 0.43 54.42, 0 30 M0 90 C1.44 72.51, 0.78 56.32, 0 30 M0 30 C1.67 11.69, 11.38 1.19, 30 0 M0 30 C-0.94 11.55, 9.68 -0.41, 30 0" stroke="#1e1e1e" stroke-width="2" fill="none"></path></g><g transform="translate(119.15481717511648 957.5) rotate(0 90.51991271972656 12.5)"><text x="90.51991271972656" y="17.52" font-family="Virgil, Segoe UI Emoji" font-size="20px" fill="#1e1e1e" text-anchor="middle" style="white-space: pre;" direction="ltr" dominant-baseline="alphabetic">Server Components</text></g><g stroke-linecap="round"><g transform="translate(880.674729894843 411.7689950757722) rotate(0 109 0.8014705937584949)"><path d="M0.82 -0.12 C37.08 -0.01, 180.52 1.01, 216.91 1.29 M-0.21 -1.22 C36.46 -1, 182.52 1.98, 219.05 2.67" stroke="#1971c2" stroke-width="2" fill="none"></path></g><g transform="translate(880.674729894843 411.7689950757722) rotate(0 109 0.8014705937584949)"><path d="M195.39 10.76 C200.95 6.8, 206.43 8.53, 219.05 2.67 M195.39 10.76 C202.9 7.97, 209.22 5.75, 219.05 2.67" stroke="#1971c2" stroke-width="2" fill="none"></path></g><g transform="translate(880.674729894843 411.7689950757722) rotate(0 109 0.8014705937584949)"><path d="M195.73 -6.34 C201.3 -6.11, 206.7 -0.18, 219.05 2.67 M195.73 -6.34 C203.18 -4.03, 209.4 -1.16, 219.05 2.67" stroke="#1971c2" stroke-width="2" fill="none"></path></g></g><mask></mask><g transform="translate(919.674729894843 350) rotate(0 66.53666687011719 17.23360553583143)"><text x="0" y="12.07731075951062" font-family="Virgil, Segoe UI Emoji" font-size="13.786884428665093px" fill="#1971c2" text-anchor="start" style="white-space: pre;" direction="ltr" dominant-baseline="alphabetic">imports shared for </text><text x="0" y="29.310916295341986" font-family="Virgil, Segoe UI Emoji" font-size="13.786884428665093px" fill="#1971c2" text-anchor="start" style="white-space: pre;" direction="ltr" dominant-baseline="alphabetic">compilation &amp; types</text></g></svg>